<?xml version="1.0" standalone="no"?>
<!DOCTYPE svg PUBLIC "-//W3C//DTD SVG 20010904//EN"
 "http://www.w3.org/TR/2001/REC-SVG-20010904/DTD/svg10.dtd">
<svg version="1.0" xmlns="http://www.w3.org/2000/svg"
 width="700.000000pt" height="700.000000pt" viewBox="0 0 700.000000 700.000000"
 preserveAspectRatio="xMidYMid meet">
<metadata>
Created by potrace 1.14, written by Peter Selinger 2001-2017
</metadata>
<g transform="translate(0.000000,700.000000) scale(0.100000,-0.100000)"
fill="#000000" stroke="none">
<path d="M2567 6118 c-137 -29 -230 -144 -230 -284 -1 -121 4 -127 397 -521
242 -244 344 -353 331 -353 -11 0 -524 -2 -1140 -3 l-1120 -2 -57 -28 c-104
-51 -161 -144 -160 -263 1 -120 60 -211 172 -263 l55 -25 1127 -1 c620 0 1129
-3 1132 -5 2 -3 -151 -160 -340 -350 -388 -388 -398 -401 -398 -520 0 -211
225 -354 415 -262 33 16 210 187 658 634 338 337 624 629 637 649 26 42 44
126 37 181 -11 98 -12 100 -656 743 -337 337 -630 623 -652 637 -60 38 -139
51 -208 36z"/>
<path d="M4277 3775 c-20 -8 -47 -21 -60 -29 -12 -9 -298 -292 -636 -628 -683
-682 -666 -662 -664 -788 1 -123 -17 -102 664 -783 656 -655 662 -660 763
-670 57 -6 133 11 179 40 94 59 139 139 140 248 1 123 -2 127 -396 522 -342
344 -351 353 -317 353 19 1 532 2 1140 3 l1105 2 57 28 c103 51 162 149 161
266 -1 119 -76 226 -185 266 -51 19 -96 19 -1178 21 -619 1 -1127 2 -1129 3
-2 0 153 157 344 349 389 389 398 400 398 521 1 122 -79 237 -190 275 -56 19
-144 20 -196 1z"/>
</g>
</svg>
